# xmcd
#
# Track frame offsets:
#	150
#	9008
#	23140
#	42887
#	63220
#	83212
#	104021
#	123780
#	141719
#	156421
#	174483
#	198317
#	223137
#	228735
#	247732
#
# Disc length: 3568 seconds
#
# Revision: 0
# Processed by: cddbd v1.5.1PL0 Copyright (c) Steve Scherf et al.
# Submitted via: EasyCDDAExtractor 8.0.2.1
#
DISCID=ca0dee0f
DTITLE=Lil Mo - Based On A True Story
DYEAR=1900
DGENRE=R&B
TTITLE0=Intro
TTITLE1=My Story
TTITLE2=Supa Star (Featuring J Star)
TTITLE3=Superwoman Pt. II (Featuring Fabolous)
TTITLE4=Player Not The Game (Featuring Carl Thomas)
TTITLE5=How Many Times
TTITLE6=2Moro
TTITLE7=Friends (Those Girls)
TTITLE8=Gangsta
TTITLE9=Saturday
TTITLE10=She Could Neva B Me
TTITLE11=Time After Time
TTITLE12=Outro
TTITLE13=I Ain't Gotta (Bonus Track)
TTITLE14=Ta Da (Bonus Track)
EXTD=
EXTT0=
EXTT1=
EXTT2=
EXTT3=
EXTT4=
EXTT5=
EXTT6=
EXTT7=
EXTT8=
EXTT9=
EXTT10=
EXTT11=
EXTT12=
EXTT13=
EXTT14=
PLAYORDER=
